<svg width="144" height="82" viewBox="0 0 144 82" fill="none" xmlns="http://www.w3.org/2000/svg">
<line x1="15.0682" y1="34.5047" x2="124.068" y2="49.5047" stroke="black"/>
<path d="M52.9001 28.091C52.4863 28.3757 51.9897 28.5743 51.4102 28.6868C50.8517 28.7832 50.2763 28.7927 49.684 28.7152C48.3143 28.5361 47.3077 28.028 46.6641 27.1908C46.0206 26.3536 45.7872 25.2594 45.9639 23.9083L47.1184 15.0794L44.5086 14.7381L44.7265 13.0723L47.3362 13.4136L47.7538 10.2208L49.725 10.4786L49.3075 13.6714L53.7496 14.2523L53.5318 15.9181L49.0896 15.3372L47.9496 24.055C47.8358 24.9249 47.9616 25.6191 48.3267 26.1375C48.7129 26.6398 49.3131 26.9442 50.1275 27.0507C50.5347 27.1039 50.9319 27.09 51.319 27.0088C51.7247 26.9301 52.082 26.7886 52.3911 26.5842L52.9001 28.091ZM65.7372 15.7069C67.5696 15.9466 68.9524 16.6733 69.8855 17.8872C70.8396 19.0851 71.1835 20.702 70.9173 22.738L69.8099 31.2059L67.8387 30.9481L68.9206 22.6745C69.1191 21.1568 68.8909 19.9504 68.2362 19.0552C67.5814 18.1601 66.5506 17.6206 65.1439 17.4366C63.5707 17.2309 62.2596 17.5395 61.2107 18.3624C60.1827 19.1693 59.561 20.3964 59.3456 22.0437L58.3435 29.7064L56.3723 29.4487L59.0663 8.84805L61.0375 9.10582L59.9192 17.657C60.5673 16.8758 61.3936 16.3155 62.3981 15.9763C63.4026 15.637 64.5156 15.5472 65.7372 15.7069ZM88.8065 26.8846L76.5905 25.2871C76.5031 26.8194 76.9252 28.1265 77.8568 29.2084C78.7908 30.2718 80.0629 30.9088 81.6732 31.1194C82.5801 31.238 83.4336 31.1896 84.2336 30.9742C85.0361 30.7403 85.7561 30.345 86.3936 29.7883L87.3372 31.2106C86.5877 31.9033 85.6958 32.3891 84.6616 32.668C83.6459 32.9493 82.555 33.0137 81.3889 32.8613C79.8897 32.6652 78.5982 32.1763 77.5144 31.3945C76.4516 30.5966 75.6701 29.5908 75.1699 28.377C74.6697 27.1632 74.5128 25.8438 74.6992 24.4186C74.8856 22.9934 75.358 21.7562 76.1164 20.707C76.8934 19.6602 77.8598 18.8924 79.0156 18.4035C80.1899 17.917 81.4526 17.762 82.8038 17.9387C84.155 18.1154 85.3262 18.5886 86.3174 19.3583C87.3086 20.128 88.0358 21.1173 88.499 22.3263C88.9646 23.5167 89.1029 24.8337 88.9142 26.2774L88.8065 26.8846ZM82.5823 19.6323C81.1757 19.4484 79.9318 19.7469 78.8507 20.528C77.7906 21.293 77.1013 22.3889 76.7829 23.8157L87.1388 25.1699C87.198 23.7092 86.8045 22.4718 85.9582 21.4575C85.1328 20.4271 84.0075 19.8187 82.5823 19.6323ZM108.686 21.3234C110.056 21.5025 111.255 21.9793 112.283 22.7538C113.314 23.5098 114.07 24.4935 114.551 25.7049C115.033 26.9162 115.179 28.2438 114.991 29.6875C114.802 31.1312 114.319 32.3764 113.542 33.4232C112.765 34.4699 111.78 35.2353 110.587 35.7194C109.395 36.2035 108.113 36.356 106.744 36.1769C105.522 36.0171 104.455 35.614 103.541 34.9675C102.647 34.3233 101.967 33.4721 101.503 32.4136L101.126 35.301L99.2378 35.0542L101.932 14.4536L103.903 14.7113L102.756 23.4846C103.49 22.6205 104.361 22.0096 105.367 21.6518C106.395 21.2779 107.501 21.1684 108.686 21.3234ZM106.834 34.4096C107.852 34.5427 108.807 34.4324 109.701 34.0786C110.596 33.7063 111.333 33.1154 111.909 32.306C112.504 31.499 112.874 30.5402 113.019 29.4297C113.165 28.3191 113.054 27.2974 112.686 26.3646C112.337 25.4341 111.776 24.6831 111.004 24.1115C110.234 23.5213 109.34 23.1597 108.322 23.0265C107.286 22.891 106.319 23.0094 105.424 23.3817C104.549 23.7379 103.814 24.3195 103.219 25.1265C102.642 25.936 102.281 26.8959 102.136 28.0065C101.991 29.117 102.093 30.1375 102.442 31.068C102.809 32.0008 103.369 32.7611 104.12 33.3488C104.893 33.9205 105.797 34.2741 106.834 34.4096ZM120.748 16.9142L122.719 17.1719L120.025 37.7726L118.054 37.5148L120.748 16.9142ZM131.461 39.4092C130.055 39.2253 128.828 38.7448 127.781 37.9678C126.737 37.1724 125.964 36.1678 125.464 34.954C124.964 33.7402 124.807 32.4207 124.994 30.9955C125.18 29.5703 125.671 28.3356 126.466 27.2912C127.262 26.2469 128.265 25.4839 129.477 25.0022C130.688 24.5206 131.997 24.3717 133.404 24.5557C134.81 24.7396 136.037 25.2201 137.084 25.997C138.131 26.774 138.895 27.7681 139.376 28.9795C139.877 30.1933 140.034 31.5127 139.847 32.9379C139.661 34.3631 139.17 35.5979 138.374 36.6422C137.597 37.689 136.602 38.4625 135.388 38.9626C134.177 39.4443 132.868 39.5932 131.461 39.4092ZM131.69 37.6601C132.727 37.7956 133.682 37.6853 134.557 37.3291C135.453 36.9568 136.189 36.3659 136.766 35.5565C137.342 34.7471 137.703 33.7871 137.848 32.6765C137.993 31.566 137.892 30.5455 137.543 29.6151C137.194 28.6846 136.633 27.9336 135.861 27.3619C135.109 26.7742 134.215 26.4126 133.179 26.277C132.142 26.1415 131.176 26.2599 130.28 26.6322C129.405 26.9884 128.67 27.57 128.075 28.377C127.499 29.1864 127.138 30.1464 126.993 31.257C126.847 32.3675 126.949 33.388 127.298 34.3184C127.666 35.2513 128.225 36.0116 128.977 36.5993C129.749 37.171 130.653 37.5246 131.69 37.6601ZM87.973 53.0171L86.2956 65.8439C85.9713 68.3242 85.1209 70.0767 83.7444 71.1015C82.3839 72.1473 80.4821 72.5104 78.0389 72.1909C76.6878 72.0142 75.428 71.6424 74.2597 71.0755C73.1074 70.5294 72.1978 69.8551 71.5309 69.0526L72.7265 67.684C73.3475 68.4053 74.1348 69.0071 75.0883 69.4895C76.0603 69.9743 77.1016 70.2893 78.2121 70.4345C80.063 70.6766 81.4803 70.4195 82.464 69.6634C83.4453 68.9257 84.0545 67.6499 84.2917 65.836L84.535 63.9759C83.8032 64.8215 82.906 65.4195 81.8436 65.77C80.7997 66.123 79.6762 66.2208 78.4731 66.0635C77.1034 65.8844 75.8928 65.4248 74.8412 64.6849C73.8105 63.9289 73.0415 62.9718 72.5341 61.8135C72.0476 60.6392 71.8939 59.3672 72.073 57.9975C72.2521 56.6278 72.7265 55.4474 73.4962 54.4561C74.2844 53.4673 75.2725 52.7494 76.4605 52.3023C77.6485 51.8553 78.9366 51.7225 80.3247 51.904C81.5649 52.0662 82.652 52.4625 83.5861 53.093C84.5203 53.7234 85.231 54.5506 85.7184 55.5744L86.0851 52.7703L87.973 53.0171ZM78.8962 64.3398C79.9512 64.4778 80.9335 64.3803 81.843 64.0474C82.7549 63.696 83.4955 63.1434 84.0647 62.3895C84.6525 61.638 85.0141 60.744 85.1496 59.7075C85.2852 58.671 85.1644 57.7234 84.7872 56.8645C84.431 55.9896 83.8562 55.2744 83.0629 54.7188C82.2905 54.1472 81.3675 53.7912 80.294 53.6508C79.239 53.5128 78.2567 53.6103 77.3472 53.9432C76.4562 54.2785 75.7168 54.8218 75.1291 55.5733C74.5599 56.3272 74.2075 57.2224 74.0719 58.2589C73.9364 59.2954 74.0467 60.2511 74.403 61.126C74.7777 62.0034 75.3513 62.7279 76.1237 63.2995C76.917 63.8551 77.8412 64.2018 78.8962 64.3398ZM107.006 55.5061L105.329 68.3329C105.005 70.8131 104.154 72.5657 102.778 73.5905C101.417 74.6363 99.5154 74.9994 97.0722 74.6799C95.721 74.5032 94.4613 74.1314 93.2929 73.5644C92.1407 73.0184 91.2311 72.3441 90.5642 71.5415L91.7597 70.173C92.3808 70.8943 93.1681 71.4961 94.1216 71.9785C95.0936 72.4633 96.1349 72.7783 97.2454 72.9235C99.0963 73.1656 100.514 72.9085 101.497 72.1523C102.479 71.4147 103.088 70.1389 103.325 68.325L103.568 66.4648C102.836 67.3104 101.939 67.9085 100.877 68.259C99.833 68.612 98.7095 68.7098 97.5064 68.5525C96.1367 68.3733 94.9261 67.9138 93.8745 67.1739C92.8438 66.4179 92.0748 65.4607 91.5673 64.3025C91.0808 63.1282 90.9271 61.8562 91.1062 60.4865C91.2853 59.1168 91.7597 57.9364 92.5294 56.9451C93.3176 55.9563 94.3057 55.2384 95.4937 54.7913C96.6817 54.3442 97.9698 54.2115 99.358 54.393C100.598 54.5552 101.685 54.9515 102.619 55.5819C103.554 56.2124 104.264 57.0395 104.752 58.0634L105.118 55.2592L107.006 55.5061ZM97.9295 66.8288C98.9845 66.9667 99.9667 66.8693 100.876 66.5364C101.788 66.185 102.529 65.6324 103.098 64.8785C103.686 64.127 104.047 63.233 104.183 62.1965C104.318 61.16 104.198 60.2123 103.82 59.3535C103.464 58.4786 102.889 57.7634 102.096 57.2078C101.324 56.6362 100.401 56.2802 99.3273 56.1398C98.2722 56.0018 97.29 56.0993 96.3805 56.4321C95.4895 56.7674 94.7501 57.3108 94.1624 58.0623C93.5931 58.8162 93.2408 59.7114 93.1052 60.7479C92.9697 61.7844 93.08 62.7401 93.4362 63.615C93.811 64.4923 94.3845 65.2168 95.1569 65.7885C95.9503 66.344 96.8744 66.6908 97.9295 66.8288ZM124.2 65.8024L111.984 64.205C111.896 65.7372 112.318 67.0443 113.25 68.1262C114.184 69.1897 115.456 69.8267 117.066 70.0372C117.973 70.1558 118.827 70.1074 119.627 69.892C120.429 69.6581 121.149 69.2628 121.787 68.7061L122.73 70.1284C121.981 70.8211 121.089 71.3069 120.055 71.5858C119.039 71.8672 117.948 71.9316 116.782 71.7791C115.283 71.583 113.991 71.0941 112.908 70.3123C111.845 69.5144 111.063 68.5086 110.563 67.2948C110.063 66.0811 109.906 64.7616 110.092 63.3364C110.279 61.9112 110.751 60.674 111.51 59.6248C112.286 58.5781 113.253 57.8102 114.409 57.3213C115.583 56.8348 116.846 56.6799 118.197 56.8566C119.548 57.0333 120.719 57.5065 121.711 58.2761C122.702 59.0458 123.429 60.0352 123.892 61.2441C124.358 62.4345 124.496 63.7516 124.307 65.1953L124.2 65.8024ZM117.975 58.5502C116.569 58.3662 115.325 58.6648 114.244 59.4458C113.184 60.2108 112.494 61.3067 112.176 62.7335L122.532 64.0877C122.591 62.6271 122.198 61.3896 121.351 60.3753C120.526 59.3449 119.401 58.7365 117.975 58.5502ZM130.788 61.5247C131.379 60.6042 132.161 59.9534 133.133 59.5722C134.124 59.1935 135.295 59.0925 136.646 59.2692L136.396 61.1849L135.927 61.0954C134.391 60.8945 133.126 61.2092 132.133 62.0394C131.14 62.8696 130.532 64.1361 130.309 65.8389L129.336 73.2796L127.365 73.0218L129.274 58.4181L131.162 58.665L130.788 61.5247Z" fill="black"/>
<g clip-path="url(#clip0)">
<path d="M18.8046 93.3182C19.2618 93.7936 20.2827 94.6385 21.9165 94.8554C22.7966 94.9723 23.8545 94.907 25.0979 94.5031C25.3433 94.4234 25.5201 94.2068 25.5504 93.9492C25.5804 93.6912 25.4584 93.4397 25.2382 93.3057C24.8597 93.0757 24.0585 92.4032 23.9972 91.7941C23.987 91.6929 23.9562 91.3883 24.3917 90.9698C24.4773 90.9055 24.5618 90.84 24.645 90.7738C29.8896 86.6038 30.8376 79.1434 26.8032 73.7896C22.7258 68.3773 14.9959 67.2799 9.57152 71.3439C6.94165 73.3143 5.23955 76.1894 4.77845 79.4394C4.31743 82.6888 5.15241 85.9233 7.12939 88.5471C9.87053 92.1858 14.3153 93.9911 18.8046 93.3182ZM10.3553 72.4059C15.2019 68.7745 22.1105 69.7547 25.755 74.5917C29.3522 79.3654 28.5073 86.0169 23.832 89.7343C23.7484 89.8009 23.6632 89.8662 23.5773 89.9308C23.5582 89.9449 23.54 89.9605 23.5226 89.9768C22.744 90.704 22.6394 91.4405 22.6887 91.9303C22.7524 92.5626 23.0939 93.1074 23.4691 93.5272C20.8542 93.8782 19.6485 92.2916 19.5939 92.2175C19.4866 92.0672 19.3237 91.9718 19.1471 91.9483C19.0809 91.9396 19.0127 91.9409 18.9451 91.9532C14.8193 92.6979 10.6941 91.0857 8.17761 87.745C6.41396 85.4047 5.66938 82.5209 6.08029 79.6244C6.49134 76.7269 8.00956 74.1635 10.3553 72.4059Z" fill="#FE5196"/>
<path d="M33.5442 94.4087C33.2967 94.4806 33.1132 94.6914 33.0749 94.9483C33.0369 95.205 33.151 95.4603 33.3671 95.6012C34.4623 96.3156 35.4661 96.6548 36.3463 96.7717C37.9798 96.9883 39.1861 96.4393 39.7516 96.1C43.9083 97.9209 48.6715 97.3388 52.2673 94.542C54.8606 92.5249 56.5109 89.6204 56.914 86.3634C57.3172 83.1057 56.4245 79.886 54.4001 77.2974C50.2254 71.9589 42.4771 71.001 37.1275 75.1603C31.8355 79.2758 30.8034 86.725 34.7779 92.1197C34.8408 92.2051 34.9052 92.2903 34.9711 92.3747C35.2814 92.8913 35.1735 93.1768 35.1376 93.2716C34.9057 93.8838 33.8829 94.3088 33.5442 94.4087ZM37.93 76.2082C42.7106 72.4904 49.6353 73.3474 53.3663 78.118C55.172 80.427 55.9685 83.2978 55.609 86.2021C55.2497 89.1054 53.7782 91.695 51.4648 93.4941C48.164 96.0616 43.7608 96.5421 39.9722 94.7456C39.7477 94.6391 39.4767 94.6733 39.2806 94.8283C39.2053 94.8878 37.6251 96.1034 35.1941 95.0843C35.666 94.777 36.1378 94.3401 36.3644 93.7464C36.5397 93.2865 36.631 92.5482 36.0692 91.6429C36.0567 91.6227 36.0431 91.6029 36.0284 91.5843C35.9623 91.4995 35.8972 91.4142 35.8341 91.3285C32.2909 86.5193 33.2115 79.8778 37.93 76.2082Z" fill="#FE5196"/>
<path d="M28.3043 63.2188C33.5488 59.0487 34.4968 51.5884 30.4625 46.2343C26.3849 40.8226 18.6551 39.7256 13.2307 43.7889C10.6009 45.7593 8.89877 48.6344 8.43763 51.8847C7.97661 55.1341 8.8116 58.3686 10.7886 60.9924C13.5298 64.6302 17.9746 66.4358 22.4638 65.7632C22.9211 66.2386 23.9419 67.0835 25.5757 67.3004C26.4559 67.4173 27.5138 67.352 28.7572 66.9481C29.0025 66.8684 29.1793 66.6518 29.2096 66.3941C29.2397 66.1361 29.1176 65.8847 28.8974 65.7507C28.5189 65.5207 27.7177 64.8482 27.6564 64.2391C27.6462 64.1379 27.6155 63.8333 28.0512 63.4149C28.1369 63.3499 28.2217 63.2848 28.3043 63.2188ZM26.3479 64.3753C26.4116 65.0075 26.7531 65.5527 27.1284 65.9722C24.515 66.3237 23.3078 64.7363 23.2531 64.6624C23.1458 64.5121 22.983 64.4168 22.8063 64.3933C22.7402 64.3845 22.672 64.3859 22.6043 64.3981C18.4806 65.1422 14.3539 63.5314 11.8368 60.1903C10.0731 57.85 9.32862 54.9659 9.73952 52.0694C10.1505 49.1722 11.6687 46.6088 14.0146 44.8509C18.861 41.2201 25.7697 42.1997 29.4142 47.0367C33.0114 51.8103 32.1666 58.4619 27.4901 62.1801C27.4065 62.247 27.3217 62.3121 27.2354 62.377C27.2167 62.3908 27.1988 62.406 27.1818 62.4221C26.4032 63.149 26.2986 63.8855 26.3479 64.3753Z" fill="#FE5196"/>
<path d="M58.0605 49.7426C53.8856 44.4051 46.1374 43.4462 40.7878 47.6056C35.4958 51.721 34.4637 59.1702 38.4374 64.5638C38.5005 64.6499 38.5653 64.7348 38.6311 64.8199C38.9417 65.3365 38.8338 65.622 38.7979 65.7168C38.566 66.329 37.5433 66.7541 37.2046 66.8539C36.957 66.9258 36.7735 67.1367 36.7352 67.3936C36.6973 67.6502 36.8113 67.9055 37.0274 68.0464C38.1226 68.7608 39.1264 69.1004 40.0066 69.2169C41.64 69.4339 42.8464 68.8848 43.4119 68.5452C47.5697 70.3682 52.3318 69.784 55.9276 66.9872C58.5209 64.9704 60.1712 62.066 60.5743 58.8089C60.9775 55.5509 60.0849 52.3312 58.0605 49.7426ZM55.125 65.9397C51.8233 68.507 47.4197 68.9858 43.6326 67.1908C43.4047 67.0829 43.1337 67.1161 42.9372 67.2766C42.9187 67.2915 41.322 68.5613 38.8551 67.5293C39.3266 67.2219 39.7982 66.785 40.0247 66.1916C40.2001 65.7317 40.2913 64.9934 39.7295 64.0885C39.7173 64.0686 39.704 64.0492 39.6896 64.031C39.6231 63.9458 39.5583 63.8608 39.4944 63.7737C35.9512 58.9645 36.8718 52.323 41.5903 48.6537C46.371 44.9353 53.2956 45.7923 57.0266 50.5632C58.8323 52.8725 59.6288 55.7434 59.2693 58.6473C58.91 61.5507 57.4384 64.1405 55.125 65.9397Z" fill="#FE5196"/>
</g>
<defs>
<clipPath id="clip0">
<rect width="65.7434" height="30.7487" fill="white" transform="translate(4.04785 35) rotate(7.56513)"/>
</clipPath>
</defs>
</svg>
